# xmcd
#
# Track frame offsets: 
#        150
#        19200
#        34950
#        53812
#        74550
#        90975
#        109987
#        130687
#        148762
#        170850
#        197325
#        212775
#        227700
#        240900
#        257512
#        271912
#
# Disc length: 3925 seconds
#
# Revision: 2
# Processed by: cddbd v1.5.2PL0 Copyright (c) Steve Scherf et al.
# Submitted via: ExactAudioCopyFreeDBPlugin 1.0
#
DISCID=e30f5310
DTITLE=Irma Thomas - If You Want it, Come and Get It
DYEAR=2001
DGENRE=Soul
TTITLE0=All I Know is the Way I Feel
TTITLE1=I Count the Teardrops
TTITLE2=The New Rules
TTITLE3=The Story of My Life
TTITLE4=Love Don't Change (wiyh Marcia Ball and Tracy Nelson)
TTITLE5=I Never Fool Nobody But Me
TTITLE6=I Needed Somebody
TTITLE7=Old Records
TTITLE8=Heart Full of Rain
TTITLE9=If You Want it, Come and Get It
TTITLE10=Hold Me While I Cry
TTITLE11=Love of My Man
TTITLE12=Yield Not to Temptation (wiyh Marcia Ball and Tracy Nelson)
TTITLE13=You Can Think Twice
TTITLE14=Sorry Wrong Number
TTITLE15=True Believer
EXTD=Blues
EXTT0=
EXTT1=
EXTT2=
EXTT3=
EXTT4=
EXTT5=
EXTT6=
EXTT7=
EXTT8=
EXTT9=
EXTT10=
EXTT11=
EXTT12=
EXTT13=
EXTT14=
EXTT15=
PLAYORDER=
